#!OML:ASF E:\Style4\Style4.ASF
:FULLY-SPECIFIED
:DEGREES
3246
root 0.479952 17.2419 -1.75101 1.4357 -4.05746 3.09364
lowerback 17.269 3.3051 -1.13809
upperback 11.9303 4.13857 -0.265165
thorax 3.06633 2.01822 -0.2272
lowerneck 7.25016 -3.15184 -7.17718
upperneck 0.22017 -4.6731 5.11079
head -0.88649 -2.41244 3.03475
rclavicle -1.03368e-014 1.19271e-015
rhumerus 26.5396 12.4802 -74.4074
rradius 130.651
rwrist 0.0697383
rhand 30.6603 -8.78693
rfingers 7.12502
rthumb 54.2996 -27.4204
lclavicle -1.03368e-014 1.19271e-015
lhumerus 31.4549 -15.0224 67.2437
lradius 131.907
lwrist -3.86681
lhand 35.0559 49.2191
lfingers 7.12502
lthumb 58.1859 64.7725
rfemur -27.4653 -3.87308 14.5149
rtibia 46.3272
rfoot -18.5839 -15.008
rtoes -11.3907
lfemur -25.4998 5.83019 -23.9417
ltibia 44.3907
lfoot -21.8582 11.0901
ltoes -7.88943
3247
root 0.489524 17.2515 -1.74057 1.35609 -4.3288 3.1715
lowerback 17.2317 3.45566 -0.978149
upperback 11.9934 4.35587 -0.336934
thorax 3.17226 2.13926 -0.417521
lowerneck 7.33132 -3.27536 -7.12941
upperneck 0.0487423 -4.83508 5.12071
head -0.945931 -2.49281 3.03836
rclavicle 3.97569e-015 1.19271e-015
rhumerus 27.4733 11.931 -74.3741
rradius 130.655
rwrist 0.808492
rhand 28.5275 -8.32654
rfingers 7.12502
rthumb 52.3784 -28.2047
lclavicle 3.97569e-015 1.19271e-015
lhumerus 31.4943 -15.2213 67.4157
lradius 132.045
lwrist -3.04486
lhand 36.0102 50.4137
lfingers 7.12502
lthumb 59.0137 65.1893
rfemur -27.3159 -3.81448 14.4018
rtibia 46.1572
rfoot -18.4158 -14.9526
rtoes -12.1741
lfemur -25.2824 5.87914 -24.0441
ltibia 44.3013
lfoot -21.9213 11.3814
ltoes -8.58649
3248
root 0.49689 17.262 -1.73283 1.3537 -4.55013 3.14481
lowerback 17.1604 3.55608 -0.76243
upperback 12.0325 4.51566 -0.411497
thorax 3.27549 2.23516 -0.631707
lowerneck 7.41909 -3.37541 -6.95257
upperneck -0.142167 -4.95716 5.01944
head -1.02081 -2.55135 2.98024
rclavicle -2.42517e-014 1.03368e-014
rhumerus 28.436 11.3197 -74.4772
rradius 130.492
rwrist 1.57282
rhand 27.0717 -7.53143
rfingers 7.12502
rthumb 51.0561 -28.1815
lclavicle -2.42517e-014 1.03368e-014
lhumerus 31.5705 -15.1955 67.5999
lradius 132.214
lwrist -2.62832
lhand 36.3804 51.0841
lfingers 7.12502
lthumb 59.3331 65.546
rfemur -27.2384 -3.77542 14.4154
rtibia 45.9897
rfoot -18.3437 -14.8211
rtoes -12.4435
lfemur -25.1919 5.91481 -24.0282
ltibia 44.2547
lfoot -21.9214 11.517
ltoes -8.44839
3249
root 0.503701 17.2681 -1.7297 1.41914 -4.72273 3.14542
lowerback 17.0945 3.65723 -0.590815
upperback 12.0442 4.67044 -0.476222
thorax 3.34321 2.32587 -0.811227
lowerneck 7.45799 -3.46628 -6.79208
upperneck -0.265371 -5.06637 4.92267
head -1.06586 -2.60362 2.92381
rclavicle 1.35174e-014 -1.63003e-014
rhumerus 29.2875 10.7291 -74.5579
rradius 130.263
rwrist 2.27473
rhand 25.656 -7.07936
rfingers 7.12502
rthumb 49.7627 -28.4258
lclavicle 1.35174e-014 -1.63003e-014
lhumerus 31.7529 -15.0745 67.8754
lradius 132.43
lwrist -2.6453
lhand 36.1195 51.078
lfingers 7.12502
lthumb 59.1081 65.7617
rfemur -27.2616 -3.74994 14.4011
rtibia 45.8507
rfoot -18.3325 -14.6263
rtoes -12.0517
lfemur -25.2185 5.90351 -24.0487
ltibia 44.2289
lfoot -21.9683 11.6348
ltoes -8.1722
3250
root 0.509511 17.2709 -1.72642 1.50265 -4.83153 3.19709
lowerback 17.0144 3.73859 -0.478285
upperback 12.0584 4.79278 -0.559644
thorax 3.41904 2.39782 -0.971618
lowerneck 7.33038 -3.50665 -6.73981
upperneck -0.243481 -5.10869 4.90784
head -1.03489 -2.62356 2.90526
rclavicle 5.1684e-015 -1.19271e-015
rhumerus 30.0651 10.153 -74.6596
rradius 129.973
rwrist 2.84605
rhand 24.3666 -6.88804
rfingers 7.12502
rthumb 48.579 -28.8261
lclavicle 5.1684e-015 -1.19271e-015
lhumerus 32.0284 -14.8263 68.1963
lradius 132.7
lwrist -3.0521
lhand 35.301 50.5756
lfingers 7.12502
lthumb 58.3991 65.9334
rfemur -27.3189 -3.76413 14.3324
rtibia 45.7388
rfoot -18.2456 -14.5233
rtoes -12.1423
lfemur -25.2792 5.88672 -24.141
ltibia 44.2196
lfoot -21.9513 11.7804
ltoes -8.52498
